<svg xmlns="http://www.w3.org/2000/svg" fill="none" viewBox="0 0 1080 1080">      <defs>  <filter color-interpolation-filters="linearRGB" primitiveUnits="userSpaceOnUse" filterUnits="objectBoundingBox" height="140%" width="140%" y="-20%" x="-20%" id="filter">    <feMorphology result="morphology" in="SourceAlpha" radius="20 20" operator="dilate"></feMorphology>    <feFlood result="flood" flood-opacity="1" flood-color="#ffffff"></feFlood>    <feComposite result="composite" operator="in" in2="morphology" in="flood"></feComposite>    <feMerge result="merge">          <feMergeNode result="mergeNode" in="composite"></feMergeNode>      <feMergeNode result="mergeNode1" in="SourceGraphic"></feMergeNode>      </feMerge>  </filter></defs>      <g filter="url(#filter)" id="notion-avatar">        <g fill="#ffffff" id="notion-avatar-face">          <title>Face/ 10</title>    <g stroke-linejoin="round" stroke-linecap="round" fill-rule="evenodd" stroke-width="1" stroke="none" id="Face/-10">        <path stroke-width="24" stroke="#000000" id="Path" d="M532,379 C664.54834,379 772,486.45166 772,619 C772,751.54834 684.54834,899 592,899 C535.13263,899 351.668898,801.612202 313.752775,718.980575 L313.322946,718.989282 L312,719 C267.81722,719 232,683.18278 232,639 C232,599.134956 261.158843,566.080325 299.312086,560.00055 C325.599297,455.979213 419.809919,379 532,379 Z M295.858895,624.545187 L304.141105,655.454813"></path>    </g>    </g><g id="notion-avatar-nose">      <g id="Nose/ 13"><path stroke-linejoin="round" stroke-linecap="round" stroke-width="6" stroke="black" fill="black" d="M644 560C644 560 665.892 613.522 673 623C676 627 693.906 641.256 692.774 653.58C690.065 683.076 644 684.359 644 684.359C644 684.359 700 689.489 700 653.58C700 637.222 687 632 674 620C666.959 613.5 644 560 644 560Z" clip-rule="evenodd" fill-rule="evenodd" id="Path"></path></g>    </g><g id="notion-avatar-mouth">          <title>Mouth/ 5</title>    <g stroke-linejoin="round" stroke-linecap="round" fill-rule="evenodd" fill="none" stroke-width="1" stroke="none" id="Mouth/-5">        <circle r="40" cy="768" cx="621" stroke-width="16" stroke="#000000" id="Oval"></circle>    </g>    </g><g id="notion-avatar-eyes">          <title>Eyes/ 3</title>    <g stroke-linejoin="round" stroke-linecap="round" fill-rule="evenodd" fill="none" stroke-width="1" stroke="none" id="Eyes/-3">        <g stroke-width="12" stroke="#000000" transform="translate(533.944954, 540.730159)" id="Group">            <path transform="translate(179.192661, 8.634921) scale(-1, 1) translate(-179.192661, -8.634921)" id="Path" d="M146.275229,-1.43884904e-13 C159.958467,9.35202544 170.38232,14.8216846 177.546789,16.4089776 C184.711258,17.9962705 196.232359,17.3885306 212.110092,14.5857578"></path>            <path id="Path" d="M6.39488462e-14,-1.43884904e-13 C13.6832373,9.35202544 24.1070905,14.8216846 31.2715596,16.4089776 C38.4360288,17.9962705 49.9571297,17.3885306 65.8348624,14.5857578"></path>        </g>    </g>    </g><g id="notion-avatar-eyebrows">          <title>Eyebrows/ 2</title>    <g stroke-linejoin="round" stroke-linecap="round" fill-rule="evenodd" fill="none" stroke-width="1" stroke="none" id="Eyebrows/-2">        <path fill="#000000" stroke-width="16" stroke="#000000" id="Combined-Shape" d="M570,485.718496 C590.574398,488.795594 605.574398,494.964927 615,504.226493 C600,498.618009 585,495.813767 570,495.813767 C555,495.813767 536.666667,498.618009 515,504.226493 L525,490.766132 C534.425602,484.323943 549.425602,482.641398 570,485.718496 Z M708,485.718496 C728.574398,482.641398 743.574398,484.323943 753,490.766132 L753,490.766132 L763,504.226493 C741.333333,498.618009 723,495.813767 708,495.813767 C693,495.813767 678,498.618009 663,504.226493 C672.425602,494.964927 687.425602,488.795594 708,485.718496 Z"></path>    </g>    </g><g id="notion-avatar-glasses">          <title>Glasses/ 0</title>    <g fill-rule="evenodd" fill="none" stroke-width="1" stroke="none" id="Glasses/-0"></g>    </g><g id="notion-avatar-hair">      <g id="Hairstyle/ 54"><path stroke-linejoin="round" stroke-linecap="round" stroke-width="12" stroke="black" fill="black" d="M486.999 191C396.999 191 260.999 287 207.999 414C154.999 541 112.933 911.176 150.999 968C219.999 1071 236.999 921 310.999 968C335.904 983.818 371.108 800.584 358.999 788C332.527 760.489 311.999 719 311.999 719C311.999 719 231.999 705 231.999 639C231.999 573 285.999 566 310.999 566C335.999 566 358.999 611 358.999 611C358.999 611 378.999 592 382.999 548C384.869 527.436 469.999 502 539.999 476C609.999 450 660.999 414 660.999 414C660.999 414 687.324 439.865 707.999 461C752.999 507 763.999 568 763.999 639C763.999 675.67 752.251 769.763 734.999 851C718.849 927.051 696.711 991.067 707.999 1008C721.183 1027.78 737.429 978.285 797.999 948C837.999 928 823.999 1001 852.999 948C881.999 895 848.999 655 828.999 519C808.999 383 750.999 292 672.999 241C594.999 190 506.36 191 486.999 191Z" clip-rule="evenodd" fill-rule="evenodd" id="Path"></path></g>    </g><g id="notion-avatar-accessories">          <title>Accessories/ 0</title>    <g fill-rule="evenodd" fill="none" stroke-width="1" stroke="none" id="Accessories/-0"></g>    </g><g id="notion-avatar-details">          <title>Details/ 0</title>    <g fill-rule="evenodd" fill="none" stroke-width="1" stroke="none" id="Details/-0"></g>    </g><g id="notion-avatar-beard">          <title>Beard/ 0</title>    <g fill-rule="evenodd" fill="none" stroke-width="1" stroke="none" id="Beard/-0"></g>    </g>      </g>      </svg>